<?xml version="1.0" standalone="no"?>
<!DOCTYPE svg PUBLIC "-//W3C//DTD SVG 20010904//EN"
 "http://www.w3.org/TR/2001/REC-SVG-20010904/DTD/svg10.dtd">
<svg version="1.0" xmlns="http://www.w3.org/2000/svg"
 width="1400.000000pt" height="854.000000pt" viewBox="0 0 1400.000000 854.000000"
 preserveAspectRatio="xMidYMid meet">

<g transform="translate(0.000000,854.000000) scale(0.100000,-0.100000)"
fill="#000000" stroke="none">
<path d="M7309 6086 c-30 -18 -75 -44 -100 -58 -41 -23 -136 -78 -169 -99 -8
-5 -40 -22 -70 -39 -30 -17 -62 -34 -70 -40 -37 -24 -690 -400 -694 -400 -3 0
-24 -13 -48 -29 -24 -16 -67 -42 -96 -57 -29 -16 -69 -39 -90 -52 -20 -12 -49
-28 -64 -34 -16 -7 -28 -15 -28 -19 0 -8 341 -206 361 -210 17 -3 48 9 69 26
8 7 35 24 60 37 25 14 61 35 80 46 19 12 44 26 55 31 11 5 196 111 410 236
215 125 399 231 410 236 11 5 34 18 50 29 17 11 44 27 60 36 76 39 90 47 95
53 3 4 16 12 30 19 14 7 43 23 65 37 22 13 47 27 55 31 8 4 25 14 38 22 l23
15 -23 13 c-13 7 -34 18 -48 24 -13 6 -27 14 -30 18 -3 4 -16 13 -30 19 -14 7
-43 24 -65 37 -22 14 -62 37 -90 51 -27 15 -57 33 -66 41 -20 18 -14 19 -80
-20z"/>
<path d="M7550 5730 c-102 -60 -191 -109 -197 -110 -7 0 -13 -4 -13 -9 0 -5
-12 -14 -27 -20 -32 -14 -85 -43 -128 -71 -16 -11 -42 -25 -57 -31 -16 -6 -28
-15 -28 -20 0 -5 -5 -9 -11 -9 -5 0 -111 -58 -234 -130 -123 -71 -228 -130
-234 -130 -5 0 -11 -3 -13 -8 -1 -4 -37 -27 -78 -50 -41 -24 -82 -47 -90 -53
-8 -5 -26 -15 -40 -21 -14 -7 -27 -15 -30 -18 -3 -3 -27 -18 -53 -34 l-48 -27
1 -210 c1 -214 4 -226 39 -195 9 7 36 25 61 38 25 14 61 35 80 46 19 12 51 30
70 40 69 37 135 75 150 86 8 6 35 22 60 36 39 20 618 354 660 380 8 5 38 22
65 38 28 15 59 33 70 40 11 6 65 37 120 68 55 32 103 62 107 68 4 6 8 102 8
214 0 155 -3 202 -12 202 -7 -1 -96 -50 -198 -110z"/>
<path d="M7810 5148 l0 -224 55 -29 c30 -17 55 -33 55 -37 0 -5 5 -8 11 -8 6
0 64 -31 130 -70 66 -38 122 -70 125 -70 2 0 4 100 4 223 l-1 222 -181 105
c-100 58 -185 107 -190 108 -4 2 -8 -97 -8 -220z"/>
<path d="M7698 5316 c-20 -11 -85 -49 -145 -84 -59 -34 -115 -67 -123 -73 -8
-5 -28 -16 -45 -25 -16 -8 -43 -23 -60 -34 -16 -11 -41 -25 -55 -31 -61 -26
-60 -24 -60 -251 0 -114 2 -208 4 -208 2 0 39 21 82 46 43 25 87 50 98 55 12
5 35 18 51 29 17 11 44 27 60 36 76 39 90 47 95 53 3 4 16 12 30 19 25 12 33
17 97 57 l33 20 0 208 c0 227 2 221 -62 183z"/>
<path d="M5842 4995 l3 -217 50 -28 c28 -16 64 -36 80 -44 17 -9 37 -20 45
-26 24 -16 191 -110 196 -110 2 0 4 97 4 215 0 150 -3 215 -11 215 -6 0 -31
14 -56 30 -24 17 -46 30 -49 30 -4 0 -136 75 -232 132 l-32 20 2 -217z"/>
<path d="M7105 4970 c-27 -16 -66 -38 -85 -48 -49 -25 -84 -46 -90 -52 -3 -3
-16 -11 -30 -18 -14 -7 -43 -23 -65 -37 -22 -13 -47 -28 -56 -32 -9 -4 -125
-71 -257 -148 l-242 -140 0 -212 c0 -117 2 -213 5 -213 5 0 705 404 745 430 8
5 41 24 73 42 l57 33 0 212 c0 117 -1 213 -2 213 -2 -1 -25 -14 -53 -30z"/>
<path d="M7515 4719 c-121 -72 -231 -135 -245 -141 -14 -7 -32 -17 -40 -24 -8
-6 -37 -24 -65 -39 -27 -14 -63 -34 -80 -44 -71 -43 -123 -72 -162 -92 l-42
-22 -3 -214 c-2 -117 1 -213 5 -213 5 0 93 49 195 108 103 60 194 112 202 116
8 3 29 15 45 26 17 10 41 25 55 33 63 35 114 64 238 135 l132 76 0 213 c0 117
-3 213 -7 212 -5 0 -107 -59 -228 -130z"/>
<path d="M7812 4639 l3 -211 185 -108 185 -108 3 211 c1 116 -1 214 -5 218
-14 13 -355 209 -364 209 -6 0 -8 -92 -7 -211z"/>
<path d="M5840 4497 c0 -195 2 -215 18 -221 9 -3 31 -15 47 -26 17 -11 37 -23
45 -27 14 -6 130 -74 160 -93 8 -5 29 -16 46 -24 17 -8 35 -19 38 -25 21 -34
26 5 26 202 l0 212 -181 105 c-99 58 -185 107 -190 108 -5 2 -9 -85 -9 -211z"/>
<path d="M7810 4146 l0 -215 94 -56 c52 -30 99 -55 105 -55 6 0 11 -4 11 -8 0
-4 12 -13 28 -20 15 -6 50 -25 77 -42 28 -16 53 -29 58 -30 4 0 7 97 7 215 0
142 -4 215 -10 215 -9 0 -220 120 -337 192 l-33 20 0 -216z"/>
<path d="M7730 4339 c-8 -4 -166 -95 -350 -202 -184 -106 -356 -205 -382 -220
-25 -14 -65 -37 -87 -52 -23 -14 -52 -30 -64 -36 -12 -5 -40 -20 -62 -34 -22
-13 -49 -29 -60 -35 -11 -5 -45 -25 -76 -43 -31 -17 -127 -72 -212 -122 l-156
-90 -3 -213 c-2 -116 1 -212 6 -212 4 0 135 74 290 164 376 219 366 213 406
234 48 25 84 46 90 52 3 3 16 11 30 18 14 7 41 22 60 34 19 11 58 33 85 49 28
15 154 88 280 161 l230 134 3 204 c1 112 -1 207 -5 211 -5 4 -15 3 -23 -2z"/>
<path d="M6775 4290 c-16 -11 -52 -31 -80 -45 -27 -15 -57 -32 -65 -38 -8 -7
-41 -26 -72 -42 -32 -17 -58 -33 -58 -37 0 -5 -5 -8 -11 -8 -15 0 -202 -110
-211 -124 -4 -6 -7 -102 -7 -213 0 -152 3 -203 12 -202 7 0 129 69 272 152
l260 152 3 213 c1 116 -1 212 -5 211 -5 0 -21 -9 -38 -19z"/>
<path d="M5840 3991 c0 -230 0 -232 23 -241 12 -6 36 -19 52 -30 17 -11 44
-26 60 -34 17 -9 37 -20 45 -26 24 -16 191 -110 196 -110 2 0 4 102 4 228 0
217 -1 228 -20 237 -80 40 -150 80 -150 87 0 4 -5 8 -11 8 -9 0 -118 60 -176
98 l-23 14 0 -231z"/>
<path d="M7758 3868 c-16 -5 -28 -14 -28 -19 0 -5 -5 -9 -11 -9 -6 0 -149 -81
-319 -180 -170 -99 -311 -180 -314 -180 -3 0 -24 -13 -48 -29 -24 -16 -67 -42
-96 -57 -29 -16 -69 -39 -90 -51 -20 -13 -50 -30 -67 -38 -16 -9 -43 -24 -60
-34 -16 -11 -58 -34 -92 -52 -35 -18 -63 -37 -63 -41 0 -4 -5 -8 -10 -8 -14 0
-240 -131 -240 -139 0 -6 166 -105 283 -169 33 -17 65 -36 71 -41 7 -5 93 40
231 121 121 71 234 136 250 144 17 8 51 28 77 44 26 16 73 43 105 61 32 17
213 122 403 232 190 110 363 211 384 223 l40 23 -37 17 c-20 10 -37 21 -37 26
0 4 -5 8 -11 8 -6 0 -72 36 -148 80 -76 44 -140 80 -142 79 -2 0 -16 -5 -31
-11z"/>
<path d="M5375 2141 c-185 -27 -314 -136 -360 -303 -22 -82 -21 -427 1 -506
35 -121 99 -199 204 -250 132 -64 378 -67 514 -7 68 30 154 112 185 176 67
137 67 534 1 667 -31 63 -116 146 -181 176 -31 14 -62 26 -70 26 -8 0 -19 4
-25 10 -12 12 -206 20 -269 11z m195 -241 c85 -43 104 -115 98 -355 -4 -145
-7 -164 -28 -200 -34 -61 -63 -77 -140 -83 -79 -5 -128 13 -162 61 -63 88 -63
446 -1 532 44 60 159 83 233 45z"/>
<path d="M4093 2130 l-23 -9 0 -531 0 -530 26 -10 c34 -13 210 -13 235 0 18
10 19 23 19 195 l0 185 235 0 c221 0 235 1 245 19 15 29 13 198 -2 208 -7 4
-116 10 -243 13 l-230 5 -3 108 -3 107 249 0 c179 0 251 3 260 12 8 8 12 47
12 108 0 81 -3 100 -18 113 -17 15 -57 17 -378 16 -197 0 -369 -4 -381 -9z"/>
<path d="M6172 2124 l-22 -15 0 -525 0 -524 26 -10 c33 -13 205 -13 238 0 l26
10 0 185 0 186 77 -3 76 -3 92 -180 c64 -127 98 -183 115 -192 37 -19 240 -17
266 2 19 14 19 15 0 47 -10 18 -32 58 -48 88 -16 30 -48 87 -69 125 -22 39
-44 82 -50 98 -6 15 -15 27 -20 27 -5 0 -9 9 -9 20 0 11 4 20 9 20 21 0 118
101 141 146 22 43 25 62 25 154 0 91 -3 111 -24 152 -54 105 -150 166 -300
192 -134 23 -517 23 -549 0z m494 -220 c63 -26 84 -57 84 -125 0 -51 -4 -63
-29 -91 l-29 -33 -126 -3 -126 -4 0 136 0 136 94 0 c63 0 106 -5 132 -16z"/>
<path d="M7263 2130 l-23 -9 0 -535 0 -534 23 -6 c12 -3 66 -6 119 -6 75 0
100 4 112 16 14 13 16 54 16 294 0 175 4 281 10 285 6 3 10 2 10 -3 0 -5 23
-51 51 -103 29 -52 63 -115 76 -141 35 -69 62 -87 128 -84 60 3 80 15 100 60
8 17 39 76 70 131 30 55 61 110 67 123 6 12 15 22 20 22 4 0 8 -133 8 -295 l0
-294 34 -7 c63 -11 216 -1 226 16 6 9 10 222 10 528 0 603 11 552 -119 552
-114 0 -132 -9 -180 -90 -23 -38 -41 -71 -41 -74 0 -3 -38 -71 -85 -151 -47
-81 -85 -150 -85 -154 0 -3 -7 -17 -16 -29 -19 -27 -19 -27 -74 73 -77 141
-89 163 -116 210 -16 28 -41 72 -54 99 -14 27 -39 64 -56 82 -31 34 -32 34
-120 33 -49 0 -99 -4 -111 -9z"/>
<path d="M8558 2129 c-17 -9 -18 -46 -18 -539 0 -513 1 -530 19 -540 21 -11
211 -14 249 -4 l22 6 0 534 c0 517 -1 534 -19 544 -25 13 -230 13 -253 -1z"/>
<path d="M9072 2124 l-22 -15 0 -517 c0 -308 4 -523 10 -532 12 -19 217 -28
249 -11 20 11 21 19 21 201 0 104 3 191 8 193 4 3 76 -84 161 -193 125 -161
159 -199 184 -204 59 -12 252 -7 271 7 19 14 16 45 -7 69 -14 14 -81 101 -112
144 -11 15 -75 99 -142 186 l-122 159 69 90 c336 431 314 398 294 420 -15 17
-32 19 -137 19 -89 0 -128 -4 -153 -16 -19 -9 -34 -20 -34 -24 0 -5 -15 -26
-32 -47 -42 -50 -79 -97 -163 -203 -37 -47 -71 -86 -76 -88 -5 -2 -9 75 -9
177 0 168 -1 181 -19 191 -32 17 -213 13 -239 -6z"/>
</g>
</svg>
