<?xml version="1.0" standalone="no"?>
<!DOCTYPE svg PUBLIC "-//W3C//DTD SVG 20010904//EN"
 "http://www.w3.org/TR/2001/REC-SVG-20010904/DTD/svg10.dtd">
<svg version="1.0" xmlns="http://www.w3.org/2000/svg"
 width="225.000000pt" height="225.000000pt" viewBox="0 0 225.000000 225.000000"
 preserveAspectRatio="xMidYMid meet">

<g transform="translate(0.000000,225.000000) scale(0.100000,-0.100000)"
fill="#000000" stroke="none">
<path d="M1039 2237 c-182 -52 -303 -237 -302 -462 0 -72 6 -105 28 -165 30
-83 31 -94 20 -160 -10 -62 9 -126 50 -167 l34 -34 -49 -48 c-130 -130 -266
-117 -340 33 -26 53 -32 76 -32 133 -1 116 8 133 145 300 83 102 118 206 87
264 -31 56 -168 67 -202 15 -14 -20 -8 -26 16 -20 34 8 94 -13 107 -38 17 -32
-4 -67 -103 -163 -152 -148 -211 -260 -211 -400 -1 -134 55 -237 181 -337 l66
-53 -54 -7 c-216 -28 -432 138 -434 332 -1 72 -11 65 -32 -23 -14 -55 -15 -79
-6 -132 29 -179 147 -298 329 -336 l62 -13 -68 -33 c-123 -59 -176 -144 -176
-283 0 -73 4 -93 28 -143 37 -75 86 -109 165 -114 l57 -4 -39 21 c-45 23 -50
24 -40 9 11 -18 -50 18 -72 43 -53 58 -76 156 -55 235 32 117 137 186 311 204
108 11 232 32 263 44 15 6 17 1 17 -38 l0 -44 -57 -12 c-32 -6 -125 -14 -207
-18 -133 -6 -154 -9 -200 -32 -87 -44 -126 -153 -95 -264 10 -38 63 -107 81
-107 6 0 -3 15 -20 34 -41 46 -55 96 -50 172 3 52 9 70 34 101 50 63 82 73
266 83 90 5 179 14 198 19 52 16 60 14 60 -16 0 -48 20 -105 77 -220 66 -132
71 -172 31 -225 -52 -68 -137 -85 -198 -40 -38 28 -69 80 -77 126 l-6 41 -13
-30 c-18 -41 -17 -120 0 -154 24 -46 80 -88 136 -101 115 -28 224 26 287 143
28 51 22 168 -15 314 -33 125 -40 200 -22 234 36 66 214 66 250 0 18 -34 11
-109 -22 -234 -38 -148 -43 -262 -14 -317 41 -78 115 -133 194 -146 87 -14
190 35 228 107 17 34 18 113 0 154 l-13 30 -6 -41 c-14 -89 -105 -164 -180
-150 -73 14 -135 95 -121 159 3 17 33 84 64 149 39 79 61 136 65 173 4 30 8
55 9 55 0 0 36 -7 79 -15 43 -8 120 -15 172 -15 119 0 190 -14 232 -46 91 -69
99 -229 16 -317 -15 -15 -22 -27 -16 -27 20 0 72 70 84 112 15 58 6 139 -23
191 -17 30 -37 49 -74 68 -46 23 -67 26 -200 32 -82 4 -175 12 -206 18 l-58
12 0 44 c0 35 3 44 14 40 43 -17 105 -28 231 -42 161 -17 242 -48 295 -113 79
-95 77 -242 -4 -330 -22 -25 -83 -61 -72 -43 10 15 6 14 -40 -9 l-39 -19 43
-1 c58 0 100 19 144 68 48 53 72 133 66 217 -10 121 -71 209 -180 260 l-68 31
63 13 c246 51 384 271 315 501 -17 56 -23 53 -24 -9 -3 -158 -148 -305 -326
-329 -35 -5 -85 -6 -113 -3 l-50 6 63 49 c123 97 186 211 186 336 0 138 -60
254 -206 399 -105 103 -126 136 -109 169 13 25 73 46 107 38 24 -6 30 0 16 20
-39 59 -191 36 -208 -31 -20 -78 22 -170 132 -296 90 -101 99 -124 99 -244 0
-78 -4 -108 -19 -135 -27 -52 -85 -108 -124 -121 -72 -24 -165 14 -238 99
l-32 35 33 31 c41 39 60 103 50 166 -11 66 -10 77 20 160 47 129 33 302 -33
423 -88 162 -260 247 -413 204z m61 -122 c6 -8 9 -23 5 -35 -5 -17 -13 -20
-38 -18 -21 2 -33 9 -35 21 -8 39 42 63 68 32z m-150 -124 c0 -20 -25 -35 -41
-25 -5 3 -9 14 -9 25 0 14 7 19 25 19 18 0 25 -5 25 -19z m274 -17 c19 -19 21
-58 4 -72 -31 -24 -57 -23 -83 2 -30 30 -31 40 -5 66 24 24 63 26 84 4z m-587
-59 c13 -14 23 -34 23 -43 -1 -40 -43 -103 -128 -188 -129 -131 -182 -253
-168 -385 17 -166 110 -274 250 -289 l61 -6 -59 -29 c-59 -28 -59 -28 -93 -10
-51 28 -149 137 -185 208 -30 56 -33 70 -33 153 0 87 2 94 44 179 36 73 60
105 135 180 116 116 136 142 136 180 0 36 -23 61 -66 76 -25 8 -22 8 16 5 33
-4 51 -12 67 -31z m1059 25 c-43 -13 -66 -39 -66 -75 0 -38 20 -65 136 -181
75 -75 100 -108 135 -180 42 -84 44 -91 44 -178 0 -84 -3 -96 -34 -156 -36
-71 -179 -220 -209 -220 -9 0 -42 12 -72 27 l-55 27 61 6 c108 12 183 72 227
184 29 72 28 200 -1 279 -26 73 -97 172 -156 221 -54 44 -104 113 -112 155
-11 55 34 100 101 100 l30 -1 -29 -8z m-646 -45 c6 -8 9 -23 5 -35 -5 -17 -13
-20 -38 -18 -21 2 -33 9 -35 21 -8 39 42 63 68 32z m-110 -139 c0 -8 -4 -17
-8 -20 -13 -8 -35 11 -28 23 10 16 36 14 36 -3z m168 -59 c2 -9 -4 -20 -13
-23 -20 -8 -50 19 -40 36 10 17 49 8 53 -13z m-153 -202 c33 -32 36 -114 5
-145 -47 -47 -120 -6 -120 67 0 88 63 131 115 78z m410 19 c22 -9 45 -57 45
-97 0 -73 -73 -114 -120 -67 -31 31 -28 113 5 145 25 26 41 30 70 19z m-227
-344 c0 -58 -4 -116 -8 -130 -5 -15 -8 38 -8 130 0 92 3 145 8 130 4 -14 8
-72 8 -130z m-79 0 c0 -110 -12 -158 -22 -95 -4 22 -7 65 -7 95 0 30 3 73 7
95 10 63 22 15 22 -95z m160 15 c1 -78 -9 -141 -20 -123 -11 16 -12 163 -2
209 l7 34 7 -30 c4 -16 7 -57 8 -90z m-1144 -135 c51 -101 140 -175 253 -210
154 -48 304 -10 435 110 36 33 68 60 71 60 13 0 5 -53 -13 -88 -42 -83 -106
-111 -323 -142 -138 -20 -266 19 -362 110 -76 71 -109 148 -112 260 l-3 85 14
-67 c8 -37 26 -90 40 -118z m2153 98 c-13 -245 -220 -403 -481 -368 -204 28
-276 60 -318 142 -19 38 -26 88 -11 88 5 0 21 -14 38 -31 128 -138 303 -190
466 -139 155 48 260 165 289 324 7 36 14 66 17 66 2 0 3 -37 0 -82z m-974
-332 c24 -18 48 -50 63 -83 23 -49 25 -65 21 -141 -3 -57 -16 -127 -37 -201
-25 -86 -32 -128 -29 -167 11 -132 136 -209 253 -155 47 21 68 43 95 97 25 51
27 15 1 -42 -34 -74 -103 -109 -202 -102 -73 5 -130 42 -174 113 -27 44 -30
56 -29 134 0 63 9 121 33 215 40 157 39 206 -7 247 -56 50 -178 50 -234 0 -46
-41 -47 -87 -4 -267 50 -211 47 -273 -20 -361 -57 -75 -181 -104 -269 -64 -48
22 -69 44 -90 94 -22 53 -18 80 5 33 27 -54 48 -76 95 -97 117 -54 242 23 253
155 3 39 -4 81 -28 167 -56 195 -52 320 14 394 49 55 79 66 172 63 71 -3 85
-6 118 -32z"/>
<path d="M873 1464 c-8 -21 13 -42 28 -27 13 13 5 43 -11 43 -6 0 -13 -7 -17
-16z"/>
<path d="M1300 1465 c-14 -16 -5 -35 16 -35 15 0 20 35 5 44 -5 3 -14 -1 -21
-9z"/>
</g>
</svg>
