<?xml version="1.0" standalone="no"?>
<!DOCTYPE svg PUBLIC "-//W3C//DTD SVG 20010904//EN"
 "http://www.w3.org/TR/2001/REC-SVG-20010904/DTD/svg10.dtd">
<svg version="1.0" xmlns="http://www.w3.org/2000/svg"
 width="800.000000pt" height="467.000000pt" viewBox="0 0 800.000000 467.000000"
 preserveAspectRatio="xMidYMid meet">

<g transform="translate(0.000000,467.000000) scale(0.100000,-0.100000)"
fill="#000000" stroke="none">
<path d="M3710 4413 c-71 -25 -190 -119 -190 -150 0 -7 -4 -13 -9 -13 -4 0
-12 -15 -18 -32 -10 -37 -7 -37 -135 -17 -116 17 -298 2 -416 -36 l-83 -26
-46 51 c-55 61 -104 88 -166 91 -137 7 -227 -181 -184 -386 14 -68 14 -70 -8
-100 -26 -35 -81 -143 -100 -195 -7 -21 -42 -77 -78 -126 -113 -155 -196 -346
-236 -545 -29 -139 -31 -178 -32 -442 0 -245 16 -417 55 -582 8 -33 12 -63 8
-66 -4 -4 -32 -15 -62 -24 -56 -18 -125 -59 -150 -90 -8 -9 -22 -39 -31 -67
-14 -39 -16 -60 -9 -101 11 -60 18 -317 9 -317 -3 0 -14 9 -24 20 -39 43 -117
33 -144 -19 -20 -37 45 -148 150 -256 l59 -60 2 -205 3 -205 50 -27 c119 -64
301 -112 475 -123 58 -4 116 -9 130 -11 40 -6 330 -6 380 0 107 14 130 19 215
48 50 16 114 41 143 54 53 24 53 24 78 5 52 -41 104 -35 239 30 79 37 85 42
137 124 65 103 100 184 103 234 0 8 5 16 10 18 6 2 10 -36 10 -100 0 -101 0
-103 35 -151 69 -97 188 -113 287 -40 44 33 114 167 158 304 45 140 47 144 71
148 32 5 56 128 62 313 5 178 -7 295 -44 419 -23 75 -39 110 -91 195 -7 11
-15 27 -19 35 -4 8 -25 34 -46 56 l-40 41 38 84 c43 97 78 138 152 181 49 28
63 31 150 33 70 1 115 8 162 25 101 35 191 80 221 111 61 63 117 155 141 231
18 61 26 77 38 72 30 -13 70 -16 70 -5 0 6 -12 13 -27 17 -16 3 -53 15 -83 26
-30 11 -68 24 -85 29 -46 14 -120 73 -153 121 -16 24 -51 84 -78 133 -67 127
-133 224 -174 257 -56 44 -161 56 -300 33 -15 -3 -4 6 25 20 28 14 71 28 98
31 26 4 50 10 53 15 2 5 19 6 37 2 127 -23 274 -101 319 -171 83 -127 105
-156 138 -182 44 -35 105 -62 178 -79 28 -7 56 -20 61 -29 7 -13 13 -10 30 19
11 19 21 41 21 49 0 20 52 121 96 188 57 84 212 233 250 238 9 1 24 10 35 20
10 9 19 14 19 10 0 -4 15 1 33 12 36 22 91 39 156 47 24 3 49 9 55 12 12 8
178 6 241 -3 22 -2 82 -19 133 -35 220 -73 414 -258 505 -484 37 -92 49 -151
52 -255 13 -410 -260 -746 -665 -820 -59 -11 -188 -14 -250 -6 -54 7 -179 47
-241 77 -142 69 -277 193 -359 329 -24 41 -45 77 -45 80 -1 3 -13 43 -28 90
-14 47 -28 103 -29 124 -2 22 -10 42 -17 44 -28 9 13 -171 65 -285 44 -97 91
-167 167 -244 160 -166 339 -241 604 -253 114 -6 286 40 406 108 222 125 383
355 422 601 15 95 -1 337 -24 370 -4 6 -13 30 -20 55 -39 137 -148 284 -291
395 -211 162 -545 211 -790 116 -250 -98 -417 -265 -510 -511 -7 -19 -16 -38
-19 -42 -5 -6 -89 17 -99 26 -1 2 -12 36 -23 76 l-20 73 22 15 c15 10 19 22
16 40 -4 20 3 34 28 59 31 31 36 32 60 21 24 -11 29 -10 46 11 14 16 16 28 9
40 -7 14 -2 25 21 47 l29 28 -117 118 c-65 65 -122 118 -127 118 -5 0 -17 -7
-26 -15 -13 -11 -24 -13 -41 -7 -48 18 -98 -30 -63 -59 13 -10 10 -17 -18 -46
-26 -27 -39 -33 -59 -29 -15 3 -35 -2 -49 -11 -17 -12 -21 -22 -16 -46 5 -23
1 -36 -16 -55 -23 -23 -23 -24 -4 -38 38 -28 -6 -14 -48 16 -24 16 -76 38
-116 49 -66 19 -78 19 -148 7 -82 -15 -179 -55 -208 -87 -27 -30 -7 -40 56
-30 142 24 249 1 312 -66 l28 -29 -73 -70 c-115 -111 -110 -108 -146 -89 -18
9 -36 13 -41 10 -5 -3 -11 -1 -15 5 -16 26 -196 5 -267 -31 -21 -11 -39 -19
-42 -19 -2 0 5 28 16 63 14 43 21 98 24 181 4 118 4 119 31 133 63 33 103 96
103 164 0 80 -97 136 -177 102 -18 -7 -34 -13 -37 -13 -2 0 -16 20 -30 45 -15
25 -50 72 -78 106 l-51 62 21 61 c29 85 44 176 36 228 -18 119 -106 192 -194
161z m96 -44 c19 -11 34 -25 34 -30 0 -6 -13 -1 -29 10 -45 32 -92 33 -151 4
-27 -13 -50 -29 -50 -34 0 -5 -5 -9 -12 -9 -19 0 21 35 67 59 50 27 98 27 141
0z m-58 -80 c33 -11 50 -45 56 -114 4 -40 -14 -111 -23 -97 -10 16 -114 78
-150 90 -44 15 -51 15 -51 -3 0 -8 -5 -15 -10 -15 -29 0 47 92 110 133 31 20
30 20 68 6z m-1040 -48 c12 -7 2 -9 -34 -4 -83 9 -139 -36 -179 -146 -11 -29
-14 -32 -14 -12 -2 41 56 136 96 158 38 22 96 24 131 4z m487 -83 c-44 -5
-129 -20 -189 -33 -124 -29 -119 -28 -112 -16 11 17 241 59 321 59 60 -1 60
-1 -20 -10z m-475 -63 c8 -4 30 -24 48 -46 l34 -38 -38 -33 c-99 -86 -154
-142 -155 -157 -1 -40 -19 36 -25 108 -8 97 -1 126 37 162 30 28 47 28 99 4z
m83 -129 c-10 -13 -20 -22 -22 -20 -4 4 29 44 36 44 2 0 -4 -11 -14 -24z m-52
-89 c-10 -9 -11 -8 -5 6 3 10 9 15 12 12 3 -3 0 -11 -7 -18z m878 -17 c11 -7
-6 -8 -56 -4 -186 17 -368 -95 -422 -259 -7 -21 -15 -36 -18 -33 -8 8 25 93
54 138 42 69 136 132 243 164 49 15 171 11 199 -6z m-989 -87 c0 -19 -13 -9
-16 12 -1 8 2 13 7 9 5 -3 9 -12 9 -21z m1488 -24 c33 -11 62 -59 62 -104 0
-37 -27 -91 -58 -115 -33 -27 -46 -25 -59 8 -10 26 -11 26 -12 3 -1 -17 -5
-21 -17 -17 -9 3 -17 6 -19 6 -9 0 8 57 21 71 9 10 11 19 7 22 -16 10 -35 -10
-35 -37 0 -19 -5 -25 -19 -23 -30 5 -34 16 -12 34 14 13 18 25 13 43 -7 24 -7
24 -17 -10 -8 -28 -12 -31 -18 -18 -12 29 35 110 75 130 41 21 47 21 88 7z
m-1666 -31 c-7 -7 -12 -8 -12 -2 0 14 12 26 19 19 2 -3 -1 -11 -7 -17z m2502
-19 c-22 -24 -34 -24 -34 0 0 21 17 31 38 23 10 -3 9 -9 -4 -23z m144 -22 c29
-28 74 -73 100 -100 l47 -47 -40 -37 c-22 -20 -60 -55 -85 -78 -25 -22 -50
-44 -56 -48 -16 -9 -72 35 -66 53 3 9 -9 4 -31 -13 -44 -33 -69 -36 -30 -3 20
17 25 28 17 35 -7 8 -20 4 -43 -13 l-34 -25 -32 24 c-17 14 -36 25 -41 25 -6
0 -15 5 -22 12 -9 9 19 41 121 139 72 71 134 128 137 128 3 1 29 -23 58 -52z
m-1574 30 c27 -19 12 -56 -30 -73 -18 -8 -37 -14 -41 -14 -10 0 16 25 28 26 5
1 12 2 16 3 4 0 -2 8 -13 17 -10 8 -13 12 -5 8 7 -3 17 0 22 7 6 10 9 11 9 2
0 -7 5 -13 10 -13 6 0 10 7 10 15 0 30 -104 10 -136 -27 -19 -21 -19 -21 3 -9
19 10 22 9 16 -5 -5 -14 -3 -14 15 -3 11 7 18 17 15 23 -3 5 -1 6 5 2 18 -11
-9 -46 -34 -46 -12 0 -27 7 -34 16 -11 13 -10 18 7 35 18 19 83 48 109 49 5 0
18 -6 28 -13z m-1101 -62 c-3 -9 -8 -14 -10 -11 -3 3 -2 9 2 15 9 16 15 13 8
-4z m2397 -80 c-27 -29 -43 -32 -38 -8 3 14 18 23 57 32 3 1 -6 -10 -19 -24z
m-825 -15 c3 -5 1 -10 -4 -10 -6 0 -11 5 -11 10 0 6 2 10 4 10 3 0 8 -4 11
-10z m-1685 -100 c-22 -153 -2 -297 62 -439 16 -35 40 -79 53 -99 13 -19 36
-75 51 -123 17 -54 32 -89 41 -89 7 0 13 -5 13 -11 0 -5 -4 -7 -10 -4 -13 8
-13 -1 1 -27 9 -17 13 -18 21 -7 7 10 8 8 3 -8 -6 -21 8 -52 57 -127 18 -27
28 -34 43 -29 17 5 18 3 8 -9 -10 -12 -7 -20 19 -44 17 -16 28 -23 23 -16 -6
11 -3 12 13 3 12 -6 19 -17 16 -24 -2 -7 10 -20 28 -29 123 -62 239 -71 326
-26 l53 28 -3 -53 -3 -52 -70 -8 c-46 -5 -86 -4 -115 4 -198 51 -321 144 -395
302 -12 27 -21 35 -28 28 -16 -16 17 -76 91 -170 65 -82 159 -144 247 -163 83
-17 90 -19 98 -27 7 -7 -5 -132 -18 -176 -9 -33 -45 -205 -44 -213 6 -42 -4
-48 -93 -57 -62 -7 -85 -1 -70 18 5 7 12 30 15 52 5 33 48 243 74 359 5 22 3
28 -8 24 -8 -2 -15 -17 -17 -31 -2 -15 -8 -25 -13 -21 -5 3 -7 10 -4 15 4 5 2
9 -4 9 -6 0 -15 -17 -20 -37 -15 -60 -49 -231 -61 -310 -13 -84 -10 -82 -116
-54 -226 58 -393 227 -489 491 -30 85 -33 96 -41 165 -3 28 -8 57 -10 65 -10
28 -2 299 9 330 3 8 5 22 5 30 -1 21 28 147 46 199 9 24 13 47 10 52 -3 5 -1
9 4 9 5 0 15 15 22 33 34 89 177 343 187 333 1 -1 -2 -31 -7 -66z m2910 -9 c0
-15 -28 -33 -40 -26 -7 5 -5 12 7 21 21 16 33 18 33 5z m-2356 -7 c29 -11 17
-21 -21 -17 -34 3 -39 0 -51 -27 -8 -16 -18 -30 -23 -30 -5 0 -3 14 6 30 9 18
11 30 5 30 -6 0 -13 -7 -16 -15 -4 -8 -10 -12 -15 -9 -12 7 -49 -55 -50 -86
-1 -17 -3 -19 -6 -7 -8 29 17 85 48 112 30 25 85 33 123 19z m1946 -24 c0 -5
12 -13 28 -18 l27 -10 -26 -1 c-15 -1 -35 9 -48 23 -23 24 -23 25 -2 19 11 -3
21 -9 21 -13z m-1974 -37 c-10 -10 -19 5 -10 18 6 11 8 11 12 0 2 -7 1 -15 -2
-18z m79 -16 c0 -13 -7 -32 -15 -42 -14 -17 -13 -18 2 -12 13 4 16 1 13 -15
-3 -12 -9 -26 -15 -32 -5 -5 -10 -17 -10 -25 0 -11 6 -9 21 9 16 19 18 20 10
4 -5 -11 -16 -25 -23 -31 -19 -14 -50 -24 -43 -14 3 5 0 11 -6 13 -12 4 35
107 55 120 6 4 7 10 3 14 -12 12 -34 -15 -62 -77 -22 -50 -25 -63 -14 -70 12
-7 11 -9 -1 -10 -48 -4 -87 5 -105 22 -17 17 -17 19 -2 13 19 -7 24 11 5 19
-8 3 -5 6 6 6 15 1 17 -4 12 -24 -4 -16 -2 -25 5 -25 7 0 10 3 6 6 -10 10 14
63 27 58 7 -3 20 12 31 36 10 23 22 43 27 46 5 3 -3 -21 -18 -53 -34 -75 -39
-93 -25 -93 6 0 11 6 11 13 0 8 14 42 31 76 26 52 29 65 18 72 -10 7 -5 8 12
3 15 -3 30 -1 33 5 10 16 12 14 11 -12z m-160 -35 c-30 -58 -53 -84 -60 -72
-4 6 1 17 11 25 11 7 16 17 12 21 -5 4 1 14 13 22 11 8 18 20 15 28 -3 8 0 11
9 8 13 -5 13 -10 0 -32z m54 -2 c-12 -22 -25 -37 -30 -34 -12 7 -11 34 1 34 6
0 10 9 10 20 0 13 7 20 20 20 19 0 19 0 -1 -40z m885 29 c-11 -18 -147 -79
-176 -79 -44 0 -33 18 15 25 23 4 67 19 97 34 63 32 74 35 64 20z m1235 -10
c18 -11 31 -23 28 -26 -3 -3 -16 2 -29 11 -12 9 -37 16 -56 16 -20 0 -31 4
-27 10 10 16 48 11 84 -11z m-1992 -46 c-3 -10 -5 -4 -5 12 0 17 2 24 5 18 2
-7 2 -21 0 -30z m2133 18 c0 -5 -7 -14 -15 -21 -12 -10 -15 -10 -15 2 0 8 3
18 7 21 9 10 23 9 23 -2z m-420 -52 c9 -15 8 -24 -1 -35 -16 -19 -4 -30 16
-14 27 22 18 -12 -10 -39 -15 -13 -25 -34 -25 -50 1 -25 1 -25 15 -7 8 11 17
17 20 15 8 -8 -15 -80 -24 -74 -11 6 -23 -57 -16 -77 4 -9 -37 -54 -117 -129
-68 -62 -197 -187 -288 -276 l-165 -162 -11 42 c-17 64 -55 128 -86 146 -15 9
-28 19 -28 22 0 3 60 61 133 129 72 68 211 198 307 289 253 241 253 241 262
241 4 0 12 -9 18 -21z m-265 -129 c29 -11 29 -12 10 -26 -20 -15 -113 -104
-350 -335 l-140 -137 -49 8 c-121 19 -246 -70 -246 -174 0 -22 -11 -31 -80
-66 -96 -48 -171 -77 -262 -100 -59 -16 -67 -16 -73 -2 -7 20 4 78 26 130 21
49 33 55 27 12 -3 -21 -1 -27 6 -20 5 5 20 10 32 10 12 0 27 7 34 14 6 8 35
20 64 26 29 6 80 24 115 40 34 16 65 29 69 28 14 -3 42 14 36 23 -3 5 3 6 12
2 12 -4 15 -3 10 6 -5 7 -2 10 6 9 7 -2 12 2 11 8 -1 6 4 11 10 11 20 0 112
69 159 119 23 25 55 59 70 76 23 25 41 55 66 113 2 6 -17 -12 -43 -40 l-46
-50 54 75 c30 41 68 102 85 135 26 52 37 64 79 83 26 12 64 26 83 31 43 13
185 7 225 -9z m251 -408 c-9 -151 -56 -219 -233 -335 -138 -91 -149 -105 -223
-291 -38 -96 -70 -144 -147 -216 -77 -74 -112 -97 -189 -126 -53 -20 -81 -24
-162 -23 -53 1 -108 5 -122 9 -24 8 -24 8 -2 9 27 1 62 22 121 73 24 21 46 36
49 34 5 -5 52 48 52 58 0 4 20 27 44 52 56 58 116 158 120 200 2 22 13 41 34
59 17 14 38 43 47 63 11 24 46 60 98 102 81 65 284 257 426 403 l76 77 8 -27
c5 -16 6 -70 3 -121z m-1991 -64 c-4 8 11 4 34 -10 22 -12 39 -28 37 -35 -3
-7 1 -10 10 -6 10 4 12 0 8 -11 -7 -17 11 -23 21 -6 3 6 15 5 30 -2 14 -6 23
-13 21 -15 -2 -3 -13 0 -25 6 -13 8 -22 8 -26 1 -8 -13 101 -64 120 -56 8 3
17 0 21 -5 3 -6 22 -18 41 -26 28 -11 38 -11 49 -2 12 10 15 10 12 -1 -2 -10
14 -17 56 -23 67 -9 106 -3 106 17 0 8 7 16 15 20 25 9 2 -25 -49 -72 -54 -49
-136 -77 -203 -68 -142 19 -279 148 -389 368 l-36 73 77 -80 c43 -44 75 -74
70 -67z m1855 139 c0 -2 -12 -14 -27 -28 l-28 -24 24 28 c23 25 31 32 31 24z
m-595 -277 c-28 -27 -54 -50 -60 -50 -5 0 13 23 40 50 27 28 54 50 60 50 5 0
-13 -22 -40 -50z m-1048 18 c-3 -8 -6 -5 -6 6 -1 11 2 17 5 13 3 -3 4 -12 1
-19z m1088 -68 c-21 -22 -41 -37 -44 -35 -2 3 13 23 34 45 21 22 41 37 44 35
2 -3 -13 -23 -34 -45z m-735 0 c-6 -11 -16 -20 -22 -20 -6 0 -3 9 7 20 10 11
20 20 22 20 2 0 -1 -9 -7 -20z m619 -31 c17 -6 31 -15 31 -20 0 -5 -12 -4 -27
2 -49 19 -89 12 -184 -31 -52 -23 -112 -50 -134 -59 -92 -41 -258 -92 -292
-90 -10 0 -2 5 17 10 147 40 252 80 394 150 102 50 139 58 195 38z m147 -36
c-21 -19 -40 -33 -42 -30 -8 8 60 75 70 70 5 -4 -8 -22 -28 -40z m-1959 5 c-3
-8 -6 -5 -6 6 -1 11 2 17 5 13 3 -3 4 -12 1 -19z m17 -34 c3 -8 2 -12 -4 -9
-6 3 -10 10 -10 16 0 14 7 11 14 -7z m750 0 c3 -8 2 -12 -4 -9 -6 3 -10 10
-10 16 0 14 7 11 14 -7z m311 -4 c-3 -5 -12 -10 -18 -10 -7 0 -6 4 3 10 19 12
23 12 15 0z m-230 -28 c-3 -3 -11 0 -18 7 -9 10 -8 11 6 5 10 -3 15 -9 12 -12z
m301 -58 c-3 -8 -11 -14 -18 -13 -10 0 -10 2 0 6 6 2 13 17 13 31 1 18 3 21 6
9 3 -10 2 -25 -1 -33z m-6 -53 c-18 -11 -148 -26 -138 -16 7 7 88 22 128 24
19 0 21 -2 10 -8z m-1090 -62 c0 -27 88 -154 159 -228 64 -69 82 -82 100 -76
13 4 21 2 21 -5 0 -6 -5 -8 -12 -4 -6 4 -8 3 -5 -3 14 -23 115 -65 138 -58 18
5 20 4 9 -4 -16 -11 -21 -8 64 -37 27 -9 71 -16 97 -16 50 1 70 -11 50 -31 -8
-8 -11 -8 -11 1 0 9 -7 8 -24 -4 -24 -15 -26 -44 -4 -44 6 0 8 6 5 13 -3 7 3
13 13 14 10 1 21 -5 24 -13 4 -10 2 -12 -6 -8 -6 4 -17 -2 -25 -12 -14 -19
-15 -19 -28 0 -13 18 -16 18 -40 2 -14 -9 -25 -24 -25 -32 0 -14 2 -15 17 -3
15 12 16 12 10 -3 -3 -10 -2 -20 3 -23 6 -4 10 -2 10 3 0 6 7 12 15 16 25 9
17 0 -32 -40 -34 -27 -41 -30 -23 -10 21 23 22 29 10 36 -28 18 -46 10 -101
-41 -29 -28 -42 -43 -26 -34 15 10 27 13 27 7 0 -11 -31 -24 -61 -27 -26 -2
-90 -58 -76 -67 6 -4 9 -10 5 -13 -13 -14 -45 21 -88 93 -24 43 -50 82 -57 87
-8 6 -15 28 -17 50 -1 22 -10 56 -19 75 -9 19 -25 61 -35 93 -11 32 -22 57
-26 57 -4 -1 -11 2 -14 6 -4 4 -1 4 6 0 7 -4 12 -1 12 8 0 25 -12 46 -23 39
-7 -4 -8 4 -4 25 4 17 2 34 -3 37 -5 3 -7 12 -3 20 3 8 0 15 -7 15 -8 0 -11
10 -7 30 4 16 2 32 -4 35 -5 4 -7 15 -4 25 3 11 2 28 -4 38 -11 20 -5 35 10
26 5 -3 9 -10 9 -15z m47 -31 c-3 -8 -6 -5 -6 6 -1 11 2 17 5 13 3 -3 4 -12 1
-19z m648 -98 c3 -5 -1 -10 -9 -10 -9 0 -16 5 -16 10 0 6 4 10 9 10 6 0 13 -4
16 -10z m-544 -37 c13 -16 12 -17 -3 -4 -10 7 -18 15 -18 17 0 8 8 3 21 -13z
m520 -38 c-5 -29 -9 -35 -14 -22 -6 16 9 75 17 66 2 -2 1 -22 -3 -44z m-11
-75 c0 -5 -2 -10 -4 -10 -3 0 -8 5 -11 10 -3 6 -1 10 4 10 6 0 11 -4 11 -10z
m-332 -43 c-1 -2 4 -12 12 -23 14 -18 14 -18 -2 -5 -10 7 -18 20 -18 29 0 8 3
13 6 10 3 -4 4 -8 2 -11z m-314 -78 c7 -46 83 -279 115 -351 24 -56 29 -54
-93 -37 -91 12 -166 44 -224 96 -37 33 -44 45 -48 88 -9 76 11 122 71 164 42
30 146 80 166 81 4 0 9 -18 13 -41z m46 -4 c0 -8 -2 -15 -4 -15 -2 0 -6 7 -10
15 -3 8 -1 15 4 15 6 0 10 -7 10 -15z m644 -21 c3 -8 2 -12 -4 -9 -6 3 -10 10
-10 16 0 14 7 11 14 -7z m-54 -44 c0 -5 -4 -10 -10 -10 -5 0 -10 5 -10 10 0 6
5 10 10 10 6 0 10 -4 10 -10z m1120 -11 c0 -6 -4 -7 -10 -4 -5 3 -10 11 -10
16 0 6 5 7 10 4 6 -3 10 -11 10 -16z m-1666 -57 c3 -5 -1 -9 -9 -9 -8 0 -15 4
-15 9 0 4 4 8 9 8 6 0 12 -4 15 -8z m1519 -34 c31 -32 31 -33 10 -36 -29 -4
-30 -22 -2 -22 19 0 21 -4 15 -32 -3 -17 -14 -40 -23 -50 -16 -18 -34 -24 -32
-10 4 23 -4 24 -16 2 -14 -25 -14 -25 -15 -2 0 27 -16 29 -25 2 -8 -25 -20
-25 -45 0 -23 23 -40 61 -40 91 0 16 5 18 27 13 21 -6 25 -4 20 9 -8 21 10 34
53 40 l35 4 -37 1 c-22 1 -43 -4 -53 -14 -9 -9 -19 -13 -23 -9 -14 14 40 45
80 45 31 0 46 -7 71 -32z m-1149 -11 c-2 -7 -19 -21 -37 -31 l-32 -18 34 31
c37 34 43 37 35 18z m166 -27 c18 -12 2 -12 -25 0 -13 6 -15 9 -5 9 8 0 22 -4
30 -9z m-516 -16 c3 -8 2 -12 -4 -9 -6 3 -10 10 -10 16 0 14 7 11 14 -7z m316
-19 c-7 -9 -15 -13 -19 -10 -3 3 1 10 9 15 21 14 24 12 10 -5z m1400 -15 c0
-11 -2 -20 -4 -20 -2 0 -6 9 -9 20 -3 11 -1 20 4 20 5 0 9 -9 9 -20z m-1065 0
c3 -6 -1 -7 -9 -4 -18 7 -21 14 -7 14 6 0 13 -4 16 -10z m-991 -72 c3 -29 5
-71 5 -93 l-1 -40 -8 40 c-14 73 -19 145 -11 145 5 0 11 -24 15 -52z m616 48
c0 -2 -7 -7 -16 -10 -8 -3 -12 -2 -9 4 6 10 25 14 25 6z m484 -21 c15 -11 16
-15 5 -15 -8 0 -24 7 -35 15 -14 11 -15 14 -4 14 8 0 24 -6 34 -14z m-704 -5
c0 -5 -4 -10 -10 -10 -5 0 -10 5 -10 10 0 6 5 10 10 10 6 0 10 -4 10 -10z
m180 -4 c0 -3 -4 -8 -10 -11 -5 -3 -10 -1 -10 4 0 6 5 11 10 11 6 0 10 -2 10
-4z m-167 -35 c6 -23 -19 -37 -27 -15 -3 9 -1 12 4 9 6 -3 10 1 10 9 0 22 7
20 13 -3z m167 5 c0 -2 -8 -10 -17 -17 -16 -13 -17 -12 -4 4 13 16 21 21 21
13z m165 -50 l40 -21 -109 -3 c-60 -1 -111 0 -115 4 -3 3 12 21 33 39 38 32
40 32 75 18 20 -9 54 -25 76 -37z m461 29 c10 -8 14 -15 8 -15 -5 0 -19 7 -30
15 -10 8 -14 15 -8 15 5 0 19 -7 30 -15z m-693 -45 c-18 -17 -36 -30 -40 -30
-8 1 58 59 67 60 3 0 -9 -14 -27 -30z m-74 -17 c-3 -21 2 -33 13 -27 7 4 8 3
4 -4 -4 -7 -11 -12 -15 -12 -10 0 -21 37 -13 44 8 8 12 7 11 -1z m886 -31 c-6
-7 -45 19 -45 29 0 5 11 2 24 -8 13 -10 23 -19 21 -21z m772 -14 c-3 -8 -6 -5
-6 6 -1 11 2 17 5 13 3 -3 4 -12 1 -19z m-2189 -50 c3 -18 -30 -44 -63 -50
-26 -4 -32 28 -9 53 21 24 67 22 72 -3z m2615 15 c-13 -2 -35 -2 -50 0 -16 2
-5 4 22 4 28 0 40 -2 28 -4z m47 -7 c0 -8 -4 -17 -8 -20 -4 -2 -8 4 -8 15 0
10 4 19 8 19 4 0 8 -6 8 -14z m-1170 -11 c20 -24 6 -28 -15 -5 -10 11 -13 20
-8 20 6 0 16 -7 23 -15z m965 8 c-16 -2 -54 -8 -83 -12 -29 -5 -50 -5 -45 0 9
9 60 16 118 16 30 0 33 -1 10 -4z m-202 -20 l-62 -4 -4 -67 -3 -67 -2 73 -2
72 68 -2 67 -2 -62 -3z m-2080 -114 c15 -12 26 -24 24 -26 -6 -6 -177 118
-177 128 0 8 77 -43 153 -102z m2464 -9 c-12 -53 -13 -55 -47 -56 -27 -2 -29
-1 -7 3 32 5 42 24 53 109 6 39 10 49 11 29 2 -16 -3 -55 -10 -85z m-1087 50
c6 -11 9 -20 7 -20 -2 0 -12 9 -22 20 -10 11 -13 20 -7 20 6 0 16 -9 22 -20z
m590 -9 c0 -22 -27 -171 -41 -223 l-10 -38 -62 2 -62 1 60 6 60 6 21 105 c32
157 34 148 -33 153 l-58 3 63 2 c55 2 62 0 62 -17z m-192 2 c-16 -2 -40 -2
-55 0 -16 2 -3 4 27 4 30 0 43 -2 28 -4z m-88 -6 c-3 -3 -36 -7 -75 -10 -38
-4 -92 -9 -120 -11 -41 -4 -38 -3 15 7 67 13 189 22 180 14z m-250 -25 c0 -10
-79 -36 -87 -29 -2 3 15 11 39 20 24 8 44 15 46 16 1 0 2 -3 2 -7z m567 -70
l-7 -37 43 2 42 2 -45 -8 c-25 -5 -46 -7 -48 -6 -5 4 10 85 16 85 2 0 2 -17
-1 -38z m313 -13 c-114 -11 -159 -7 -55 5 55 7 105 9 110 6 6 -3 -19 -8 -55
-11z m-172 -16 c-10 -2 -28 -2 -40 0 -13 2 -5 4 17 4 22 1 32 -1 23 -4z m-645
-124 c-24 -10 -123 -11 -123 -1 0 4 32 7 71 7 38 1 62 -3 52 -6z m132 6 c-23
-8 -83 -10 -79 -3 3 4 24 8 47 7 23 0 38 -2 32 -4z m62 -1 c-3 -3 -12 -4 -19
-1 -8 3 -5 6 6 6 11 1 17 -2 13 -5z m93 1 c0 -7 -39 -12 -49 -5 -7 4 1 7 18 8
17 0 31 -1 31 -3z"/>
<path d="M4007 3694 c-8 -8 1 -24 14 -24 5 0 9 7 9 15 0 15 -12 20 -23 9z"/>
<path d="M5083 3665 c60 -46 73 -46 16 0 -24 19 -48 35 -53 35 -5 0 12 -16 37
-35z"/>
<path d="M4945 3592 c-49 -47 -72 -72 -50 -55 40 31 154 143 145 143 -3 -1
-45 -40 -95 -88z"/>
<path d="M2776 2233 c-6 -14 -5 -15 5 -6 7 7 10 15 7 18 -3 3 -9 -2 -12 -12z"/>
<path d="M2884 3266 c-9 -15 -14 -29 -11 -32 3 -3 13 6 23 20 9 15 14 29 11
32 -3 3 -13 -6 -23 -20z"/>
<path d="M4193 3113 c9 -2 25 -2 35 0 9 3 1 5 -18 5 -19 0 -27 -2 -17 -5z"/>
<path d="M4328 3113 c12 -2 30 -2 40 0 9 3 -1 5 -23 4 -22 0 -30 -2 -17 -4z"/>
<path d="M4148 3103 c7 -3 16 -2 19 1 4 3 -2 6 -13 5 -11 0 -14 -3 -6 -6z"/>
<path d="M3231 2354 c0 -11 3 -14 6 -6 3 7 2 16 -1 19 -3 4 -6 -2 -5 -13z"/>
<path d="M2680 2630 c8 -5 20 -10 25 -10 6 0 3 5 -5 10 -8 5 -19 10 -25 10 -5
0 -3 -5 5 -10z"/>
<path d="M5907 3502 c-13 -19 -28 -158 -26 -234 2 -95 23 -211 46 -248 19 -32
46 -47 103 -56 107 -17 158 103 139 329 -12 130 -26 188 -48 195 -12 4 -13
-13 -8 -106 8 -132 -7 -277 -31 -311 -28 -39 -59 -45 -87 -17 -40 40 -57 116
-62 281 -5 143 -12 190 -26 167z"/>
<path d="M6375 3361 c-44 -18 -85 -93 -85 -155 0 -33 48 -107 93 -145 11 -9
17 -29 17 -58 0 -38 -5 -50 -33 -78 -55 -55 -108 -58 -165 -10 -36 30 -42 31
-42 4 0 -30 62 -89 97 -91 78 -4 142 24 185 82 47 64 35 151 -29 218 -45 46
-73 95 -73 127 0 9 11 27 25 40 28 29 85 34 105 10 7 -8 16 -15 21 -15 18 0 8
27 -19 53 -28 27 -60 33 -97 18z"/>
<path d="M5645 3303 c-68 -5 -155 -23 -155 -32 0 -4 61 -6 136 -5 l135 3 -123
-128 c-140 -145 -175 -197 -154 -226 13 -18 18 -18 137 -2 107 14 211 35 258
52 11 4 11 8 0 21 -13 16 -39 15 -159 -1 -14 -2 -52 -7 -85 -11 -69 -8 -76
-23 49 121 122 140 123 141 141 168 9 14 14 31 10 37 -6 9 -77 11 -190 3z"/>
<path d="M5905 2803 c-40 -56 -148 -271 -176 -351 -26 -74 -10 -90 28 -29 15
25 36 59 45 76 19 35 38 38 108 17 l45 -13 7 -123 c7 -131 19 -163 40 -114 18
42 20 356 3 467 -20 132 -43 147 -100 70z m45 -125 c1 -29 3 -71 6 -92 5 -35
4 -38 -12 -32 -10 4 -37 10 -60 13 -39 5 -41 7 -30 27 31 58 82 136 88 136 5
0 8 -24 8 -52z"/>
<path d="M6467 2803 c-4 -3 -7 -36 -7 -72 0 -36 -7 -120 -15 -186 -23 -194
-20 -204 56 -169 48 21 84 61 115 129 44 94 28 174 -52 252 -51 49 -80 63 -97
46z m79 -93 c31 -47 41 -113 24 -165 -12 -35 -64 -105 -79 -105 -4 0 -4 24 0
53 4 28 8 98 8 155 1 60 5 102 11 102 5 0 22 -18 36 -40z"/>
<path d="M5466 2780 c-59 -3 -91 -9 -94 -17 -5 -17 40 -33 92 -33 41 0 44 -2
50 -31 3 -17 6 -68 6 -113 0 -152 42 -348 70 -331 8 5 9 75 4 236 l-7 229 71
0 c83 0 102 6 102 31 0 40 -34 44 -294 29z"/>
<path d="M6331 2777 c-6 -8 -12 -50 -13 -95 -1 -45 -5 -82 -9 -82 -4 0 -41 34
-83 76 -102 101 -109 99 -118 -36 -9 -120 1 -282 18 -287 15 -5 21 34 30 175
4 61 10 112 14 112 4 0 38 -33 76 -73 82 -86 90 -92 109 -77 21 17 22 272 1
289 -10 8 -16 8 -25 -2z"/>
</g>
</svg>
